<svg xmlns="http://www.w3.org/2000/svg" width="100%" height="auto" viewBox="0 0 1573 1261" version="1.1" preserveAspectRatio="xMidYMid meet" style="max-width: 100%; max-height: 70vh;">
	<path d="M 0 629.001 L 0 1258.001 786.750 1257.751 L 1573.500 1257.500 1573.751 628.750 L 1574.002 0 787.001 0 L 0 0 0 629.001 M 0.497 629.500 C 0.497 975.450, 0.611 1116.826, 0.750 943.668 C 0.889 770.510, 0.889 487.460, 0.750 314.668 C 0.611 141.876, 0.497 283.550, 0.497 629.500 M 650.788 316.750 L 646.300 333.500 629.900 333.254 C 620.880 333.118, 612.038 332.760, 610.250 332.458 C 608.462 332.156, 607.002 332.267, 607.004 332.705 C 607.007 333.142, 614.186 337.923, 622.957 343.328 L 638.906 353.156 636.561 358.328 C 635.271 361.173, 631.692 368.793, 628.608 375.263 C 625.523 381.733, 623 387.459, 623 387.987 C 623 388.516, 630.271 383.560, 639.159 376.974 C 648.046 370.388, 655.619 365, 655.989 365 C 656.359 365, 663.825 370.375, 672.580 376.944 C 681.336 383.513, 688.625 388.539, 688.777 388.112 C 688.930 387.685, 685.444 379.789, 681.031 370.566 C 676.619 361.342, 673.229 353.439, 673.498 353.004 C 673.767 352.568, 680.963 348.002, 689.489 342.856 C 698.015 337.710, 704.993 333.142, 704.996 332.705 C 704.998 332.267, 703.538 332.156, 701.750 332.458 C 699.962 332.760, 691.104 333.118, 682.064 333.254 L 665.629 333.500 661.153 316.750 C 658.692 307.538, 656.362 300, 655.977 300 C 655.591 300, 653.256 307.538, 650.788 316.750 M 634.253 420.250 C 634.762 445.641, 635.760 450.641, 643.480 466.500 C 653.373 486.824, 671.555 503.375, 693 511.579 C 695.475 512.526, 697.846 513.602, 698.269 513.970 C 698.693 514.338, 698.326 516.633, 697.454 519.069 C 695.175 525.440, 692.287 539.958, 691.059 551.211 C 689.320 567.159, 690.119 586.680, 692.500 586.370 C 693.426 586.249, 696.388 587.167, 700 588.693 C 700.825 589.042, 701.725 589.404, 702 589.497 C 702.704 589.737, 708.201 591.933, 710 592.693 C 710.825 593.042, 711.725 593.405, 712 593.500 C 712.275 593.595, 713.175 593.958, 714 594.307 C 715.853 595.090, 721.320 597.272, 722 597.500 C 722.583 597.695, 727.817 599.776, 730 600.681 C 730.825 601.022, 731.950 601.418, 732.500 601.559 C 733.050 601.701, 735.075 602.492, 737 603.317 C 738.925 604.143, 740.950 604.897, 741.500 604.994 C 742.050 605.091, 742.950 605.523, 743.500 605.955 C 744.050 606.386, 746.273 607.311, 748.440 608.010 C 750.607 608.709, 754.432 610.211, 756.940 611.348 C 759.448 612.485, 761.725 613.473, 762 613.544 C 762.275 613.615, 763.400 614.033, 764.500 614.472 C 771.139 617.127, 778.717 620, 779.078 620 C 779.310 620, 779.508 611.338, 779.519 600.750 C 779.533 586.260, 779.982 579.291, 781.336 572.565 C 784.412 557.278, 790.490 541.391, 797.385 530.613 L 801.051 524.882 815.073 542.191 L 829.095 559.500 824.798 563.284 C 819.480 567.966, 811.528 573.331, 803 577.990 L 796.500 581.540 796.167 592.020 C 795.983 597.784, 796.376 606.922, 797.039 612.328 L 798.245 622.155 800.873 621.509 C 806.315 620.169, 826.039 609.903, 836.122 603.160 C 847.347 595.654, 863.414 581.869, 868.805 575.118 C 875.118 567.214, 876.631 559.622, 873.224 552.940 C 870.128 546.867, 818.486 483.634, 814.880 481.500 C 811.664 479.597, 809.175 479.474, 763.500 478.957 C 711.007 478.363, 712.877 478.568, 699.952 471.976 C 692.682 468.268, 682.836 457.608, 678.729 449 C 674.026 439.142, 673 432.838, 673 413.816 L 673 398 653.404 398 L 633.807 398 634.253 420.250 M 769 406.365 C 761.754 408.001, 757.907 410.134, 753.008 415.232 C 746.352 422.158, 744.497 427.026, 744.519 437.500 C 744.536 445.329, 744.892 447.175, 747.254 451.687 C 753.095 462.843, 761.779 468.272, 774.691 468.840 C 781.760 469.151, 783.627 468.860, 788.311 466.715 C 795.698 463.333, 801.394 457.934, 804.720 451.161 C 807.062 446.391, 807.498 444.240, 807.487 437.495 C 807.477 430.782, 807.025 428.572, 804.687 423.793 C 798.115 410.360, 783.317 403.134, 769 406.365 M 868.500 434.940 C 865.789 435.684, 865.969 435.775, 870.372 435.882 C 879.206 436.096, 896.283 439.098, 905.467 442.051 C 941.944 453.779, 957.366 482.925, 945.828 518.330 C 928.425 571.738, 857.299 629.444, 775.500 656.524 C 744.638 666.741, 723.133 670.399, 694 670.386 C 677.088 670.379, 671.744 670.012, 663.470 668.286 C 637.096 662.786, 619.773 651.285, 611.475 633.766 C 601.493 612.689, 606.589 586.108, 626.290 556.500 L 630.282 550.500 626.042 554.500 C 609.963 569.670, 592.623 597.178, 585.382 619 C 582.804 626.770, 582.563 628.746, 582.578 642 C 582.593 655.250, 582.819 657.071, 585.205 663.123 C 589.953 675.171, 596.190 683.200, 606.449 690.472 C 621.724 701.299, 639.833 706.889, 666.695 709.070 C 721.817 713.545, 796.882 692.935, 862.125 655.414 C 890.987 638.814, 919.514 617.405, 939.807 597.111 C 985.173 551.745, 1002.004 506.584, 985.767 473.792 C 981.696 465.572, 969.820 453.619, 960.670 448.534 C 951.555 443.469, 940.554 439.426, 929 436.895 C 921.213 435.189, 915.172 434.751, 895.500 434.465 C 882.300 434.273, 870.150 434.487, 868.500 434.940 M 231.230 788.501 C 224.425 790.397, 221.131 792.155, 217.814 795.661 C 212.646 801.123, 211.620 808.362, 214.967 815.737 C 218.446 823.401, 226.033 826.720, 249.919 831.029 C 255.649 832.063, 260.998 833.570, 261.806 834.377 C 265.506 838.078, 258.802 842.001, 248.782 841.998 C 241.350 841.997, 236.093 839.745, 234.197 835.750 L 232.891 833 221.970 833 L 211.050 833 211.635 836.250 C 214.192 850.471, 224.293 856.933, 245.279 857.776 C 266.261 858.618, 278.128 854.544, 283.106 844.790 C 287.195 836.780, 284.338 827.073, 276.413 822.047 C 271.580 818.982, 261.038 815.873, 249 813.963 C 238.504 812.298, 234.771 810.633, 235.178 807.796 C 235.637 804.595, 239.508 803.031, 247 803.018 C 254.522 803.006, 259.560 805.399, 260.582 809.469 C 261.213 811.985, 261.281 812, 272.220 812 L 283.223 812 282.528 808.250 C 280.854 799.202, 275.581 793.155, 266.445 789.807 C 258.743 786.984, 239.267 786.262, 231.230 788.501 M 942.033 788.539 C 925.966 793.038, 916.469 805.953, 916.692 823 C 916.887 837.999, 924.741 850.058, 937.531 854.998 C 949.751 859.717, 969.060 858.514, 978.229 852.461 C 980.279 851.108, 982.171 850, 982.433 850 C 982.695 850, 983.205 851.575, 983.566 853.500 C 984.220 856.988, 984.241 857, 989.633 857 L 995.044 857 994.772 838.250 L 994.500 819.500 975.250 819.228 L 956 818.957 956 824.978 L 956 831 962.441 831 C 965.984 831, 969.115 831.377, 969.399 831.837 C 970.410 833.472, 966.938 836.858, 962.520 838.546 C 956.861 840.707, 949.373 840.114, 945.251 837.179 C 935.883 830.508, 936.669 812.930, 946.588 807.266 C 953.996 803.037, 965.448 805.410, 969.328 811.979 L 971.113 815 982.057 815 C 994.643 815, 994.621 815.022, 990.605 806.398 C 987.404 799.525, 982.002 794.364, 974.174 790.701 C 968.530 788.059, 966.337 787.614, 957.585 787.333 C 950.684 787.111, 945.774 787.491, 942.033 788.539 M 1491.033 788.539 C 1474.976 793.036, 1465.383 806.052, 1465.636 823 C 1465.864 838.266, 1473.703 850.025, 1487 855.046 C 1492.464 857.109, 1495.254 857.500, 1504.500 857.500 C 1513.697 857.500, 1516.540 857.105, 1521.845 855.093 C 1537.011 849.338, 1545.617 833.731, 1542.906 816.898 C 1540.935 804.655, 1534.370 795.940, 1523.174 790.701 C 1517.530 788.059, 1515.337 787.614, 1506.585 787.333 C 1499.684 787.111, 1494.774 787.491, 1491.033 788.539 M 28.211 796.750 L 28.500 805.500 40 806 L 51.500 806.500 51.767 831.750 L 52.034 857 63.017 857 L 74 857 74 831.533 L 74 806.066 85.250 805.783 L 96.500 805.500 96.789 796.750 L 97.078 788 62.500 788 L 27.922 788 28.211 796.750 M 121.032 821.250 C 114.253 839.538, 108.499 855.063, 108.246 855.750 C 107.895 856.704, 110.489 857, 119.195 857 L 130.603 857 132.716 852 L 134.828 847 148.969 847 L 163.111 847 165.189 852 L 167.267 857 178.740 857 C 189.260 857, 190.158 856.854, 189.535 855.250 C 189.162 854.288, 183.388 838.763, 176.704 820.750 L 164.551 788 148.955 788 L 133.359 788 121.032 821.250 M 313 822.500 L 313 857 324 857 L 335 857 335 848.578 L 335 840.156 339.750 836.084 C 342.363 833.845, 344.789 832.010, 345.141 832.006 C 345.494 832.003, 350.894 837.597, 357.141 844.439 L 368.500 856.878 381.750 856.939 C 389.038 856.972, 395 856.745, 395 856.434 C 395 856.122, 387.322 847.545, 377.937 837.373 C 368.552 827.202, 361.014 818.489, 361.187 818.011 C 361.359 817.533, 368.917 810.697, 377.983 802.821 L 394.466 788.500 380.694 788.222 L 366.922 787.943 351.211 801.675 L 335.500 815.407 335.222 801.704 L 334.944 788 323.972 788 L 313 788 313 822.500 M 481 822.469 L 481 857 492 857 L 503 857 503 843.059 C 503 835.391, 503.357 828.897, 503.794 828.627 C 504.231 828.357, 507.529 834.518, 511.123 842.318 L 517.658 856.500 530.579 856.764 L 543.500 857.028 549.903 842.978 C 553.425 835.251, 556.687 828.693, 557.153 828.405 C 557.619 828.118, 558 834.434, 558 842.441 L 558 857 569 857 L 580 857 580 822.500 L 580 788 568.171 788 L 556.342 788 543.921 814.630 C 537.089 829.276, 531.124 841.314, 530.665 841.380 C 530.205 841.446, 524.290 829.575, 517.521 815 L 505.212 788.500 493.106 788.219 L 481 787.938 481 822.469 M 630.625 788.798 C 630.354 789.237, 624.966 803.524, 618.652 820.548 C 612.338 837.572, 606.689 852.752, 606.099 854.282 L 605.025 857.063 616.635 856.782 L 628.244 856.500 630.001 852 L 631.757 847.500 646.269 847.224 L 660.780 846.948 662.588 851.974 L 664.395 857 675.698 857 C 681.914 857, 687 856.631, 687 856.180 C 687 855.545, 665.720 797.886, 662.482 789.750 C 661.861 788.190, 660.124 788, 646.452 788 C 638.018 788, 630.896 788.359, 630.625 788.798 M 713 822.500 L 713 857 723.980 857 L 734.959 857 735.230 836.561 L 735.500 816.122 748.500 836.534 L 761.500 856.946 775.763 856.973 L 790.026 857 789.763 822.750 L 789.500 788.500 778.500 788.500 L 767.500 788.500 767 810.187 L 766.500 831.874 752.500 809.952 L 738.500 788.030 725.750 788.015 L 713 788 713 822.500 M 828.014 821.250 C 821.231 839.538, 815.479 855.063, 815.233 855.750 C 814.892 856.703, 817.496 857, 826.195 857 L 837.603 857 839.716 852 L 841.828 847 855.969 847 L 870.111 847 872.189 852 L 874.267 857 885.740 857 C 896.260 857, 897.158 856.854, 896.535 855.250 C 896.162 854.288, 890.388 838.763, 883.704 820.750 L 871.551 788 855.950 788 L 840.348 788 828.014 821.250 M 1024.681 788.652 C 1024.306 789.027, 1024 804.558, 1024 823.167 L 1024 857 1055.039 857 L 1086.078 857 1085.789 848.250 L 1085.500 839.500 1065.694 839.229 L 1045.887 838.957 1046.194 834.729 L 1046.500 830.500 1063.500 830 L 1080.500 829.500 1080.500 823 L 1080.500 816.500 1063.500 816 L 1046.500 815.500 1046.500 811 L 1046.500 806.500 1066 806 L 1085.500 805.500 1085.500 797 L 1085.500 788.500 1055.431 788.236 C 1038.893 788.090, 1025.056 788.278, 1024.681 788.652 M 1114.667 788.667 C 1114.300 789.033, 1114 804.558, 1114 823.167 L 1114 857 1125 857 L 1136 857 1136 847.582 C 1136 842.402, 1136.273 837.452, 1136.607 836.582 C 1137.062 835.395, 1138.624 835.004, 1142.857 835.015 C 1145.961 835.024, 1148.973 835.361, 1149.552 835.765 C 1150.131 836.169, 1153.608 841.112, 1157.279 846.750 L 1163.955 857 1175.465 857 L 1186.975 857 1183.325 851.250 C 1181.318 848.087, 1177.949 842.937, 1175.838 839.805 C 1173.727 836.673, 1172 833.688, 1172 833.174 C 1172 832.659, 1173.529 831.071, 1175.398 829.646 C 1180.373 825.851, 1183 819.712, 1183 811.881 C 1183 800.338, 1176.880 791.884, 1166.500 789.088 C 1162.166 787.921, 1115.790 787.544, 1114.667 788.667 M 1274 822.439 L 1274 857 1284.966 857 L 1295.932 857 1296.216 846.250 L 1296.500 835.500 1311.500 834.956 C 1327.339 834.382, 1329.665 833.836, 1334.850 829.473 C 1344.685 821.197, 1345.206 802.871, 1335.847 794.367 C 1329.641 788.727, 1328.466 788.523, 1300.250 788.189 L 1274 787.879 1274 822.439 M 1369.630 789.521 C 1369.284 790.425, 1369 805.977, 1369 824.082 L 1369 857 1380.466 857 L 1391.932 857 1392.216 846.250 L 1392.500 835.500 1398 835.241 C 1401.025 835.098, 1403.992 835.323, 1404.593 835.741 C 1405.194 836.158, 1408.668 841.112, 1412.313 846.750 L 1418.941 857 1430.483 857 L 1442.025 857 1439.358 852.750 C 1437.891 850.413, 1434.510 845.258, 1431.845 841.295 C 1429.180 837.332, 1427 833.732, 1427 833.295 C 1427 832.858, 1428.525 831.283, 1430.388 829.797 C 1435.905 825.395, 1438.283 819.278, 1437.846 810.615 C 1437.360 800.988, 1433.770 794.788, 1426.522 791.055 C 1421.638 788.539, 1421.166 788.495, 1395.911 788.190 C 1372.867 787.911, 1370.196 788.046, 1369.630 789.521 M 1495.371 807.494 C 1490.215 810.585, 1488 815.094, 1488 822.500 C 1488 833.298, 1493.032 839.085, 1503.051 839.810 C 1509.870 840.303, 1514.984 838.235, 1518.236 833.669 C 1521.300 829.366, 1521.910 819.344, 1519.440 813.868 C 1515.658 805.480, 1503.917 802.371, 1495.371 807.494 M 1136.607 807.582 C 1136.273 808.452, 1136 810.927, 1136 813.082 L 1136 817 1148.443 817 C 1160.168 817, 1160.976 816.872, 1162.443 814.777 C 1164.501 811.840, 1164.407 810.407, 1162 808 C 1160.234 806.234, 1158.667 806, 1148.607 806 C 1139.141 806, 1137.111 806.267, 1136.607 807.582 M 1296 811.500 L 1296 817 1307.929 817 C 1320.809 817, 1323 816.213, 1323 811.584 C 1323 806.968, 1320.342 806, 1307.671 806 L 1296 806 1296 811.500 M 1392 811.500 L 1392 817 1403.943 817 C 1415.152 817, 1415.982 816.863, 1417.443 814.777 C 1419.501 811.840, 1419.407 810.407, 1417 808 C 1415.232 806.232, 1413.667 806, 1403.500 806 L 1392 806 1392 811.500 M 645.539 810.107 C 645.260 810.873, 643.463 815.751, 641.546 820.947 C 639.629 826.143, 638.216 830.549, 638.406 830.739 C 638.596 830.929, 642.340 830.953, 646.727 830.792 L 654.702 830.500 650.767 820 C 646.419 808.399, 646.267 808.112, 645.539 810.107 M 144.611 819.831 C 142.625 825.237, 141 829.962, 141 830.331 C 141 830.699, 144.600 831, 149 831 C 153.400 831, 157 830.809, 157 830.575 C 157 828.992, 149.608 810, 148.992 810 C 148.569 810, 146.597 814.424, 144.611 819.831 M 851.611 819.831 C 849.625 825.237, 848 829.962, 848 830.331 C 848 830.699, 851.600 831, 856 831 C 860.400 831, 864 830.707, 864 830.350 C 864 828.703, 856.608 810, 855.957 810 C 855.553 810, 853.597 814.424, 851.611 819.831" stroke="none" fill="black" fill-rule="evenodd"/>
</svg>